<?xml version="1.0" encoding="UTF-8"?>
<svg width="22px" height="24px" viewBox="0 0 22 24" version="1.1" xmlns="http://www.w3.org/2000/svg" xmlns:xlink="http://www.w3.org/1999/xlink">
    <!-- Generator: Sketch 45.2 (43514) - http://www.bohemiancoding.com/sketch -->
    <title>Icoontjes-01</title>
    <desc>Created with Sketch.</desc>
    <defs></defs>
    <g id="Page-1" stroke="none" stroke-width="1" fill="none" fill-rule="evenodd">
        <g id="[2a.BOARD]-Formulieren-&amp;-Interactieve-elementen-1.4-(11-mei)-[BOARD]" transform="translate(-465.000000, -3566.000000)" fill-rule="nonzero" fill="#000000">
            <g id="Icoontjes-01" transform="translate(465.000000, 3566.000000)">
                <path d="M21.9,22 C21.9,22.9 21.1,23.7 20.2,23.7 L1.9,23.7 C1,23.7 0.2,22.9 0.2,22 L0.2,5.3 C0.2,4.4 1,3.6 1.9,3.6 L3.6,3.6 L3.6,2.3 C3.6,1.2 4.5,0.2 5.7,0.2 L6.5,0.2 C7.6,0.2 8.6,1.1 8.6,2.3 L8.6,3.6 L13.6,3.6 L13.6,2.3 C13.6,1.2 14.5,0.2 15.7,0.2 L16.5,0.2 C17.6,0.2 18.6,1.1 18.6,2.3 L18.6,3.6 L20.3,3.6 C21.2,3.6 22,4.4 22,5.3 L22,22 L21.9,22 Z M5.6,12.4 L5.6,8.6 L1.8,8.6 L1.8,12.4 L5.6,12.4 Z M5.6,17.4 L5.6,13.2 L1.8,13.2 L1.8,17.4 L5.6,17.4 Z M5.6,22 L5.6,18.2 L1.8,18.2 L1.8,22 L5.6,22 Z M6.9,2.4 C6.9,2.2 6.7,2 6.5,2 L5.7,2 C5.5,2 5.3,2.2 5.3,2.4 L5.3,6.2 C5.3,6.4 5.5,6.6 5.7,6.6 L6.5,6.6 C6.7,6.6 6.9,6.4 6.9,6.2 L6.9,2.4 Z M10.7,12.4 L10.7,8.6 L6.5,8.6 L6.5,12.4 L10.7,12.4 Z M10.7,17.4 L10.7,13.2 L6.5,13.2 L6.5,17.4 L10.7,17.4 Z M10.7,22 L10.7,18.2 L6.5,18.2 L6.5,22 L10.7,22 Z M15.7,12.4 L15.7,8.6 L11.5,8.6 L11.5,12.4 L15.7,12.4 Z M15.7,17.4 L15.7,13.2 L11.5,13.2 L11.5,17.4 L15.7,17.4 Z M15.7,22 L15.7,18.2 L11.5,18.2 L11.5,22 L15.7,22 Z M16.9,2.4 C16.9,2.2 16.7,2 16.5,2 L15.7,2 C15.5,2 15.3,2.2 15.3,2.4 L15.3,6.2 C15.3,6.4 15.5,6.6 15.7,6.6 L16.5,6.6 C16.7,6.6 16.9,6.4 16.9,6.2 L16.9,2.4 Z M20.3,12.4 L20.3,8.6 L16.5,8.6 L16.5,12.4 L20.3,12.4 Z M20.3,17.4 L20.3,13.2 L16.5,13.2 L16.5,17.4 L20.3,17.4 Z M20.3,22 L20.3,18.2 L16.5,18.2 L16.5,22 L20.3,22 Z" id="Shape"></path>
            </g>
        </g>
    </g>
</svg>