<?xml version="1.0" encoding="utf-8"?>
<!-- Generator: Adobe Illustrator 21.1.0, SVG Export Plug-In . SVG Version: 6.00 Build 0)  -->
<svg version="1.1" id="tamtam" xmlns="http://www.w3.org/2000/svg" xmlns:xlink="http://www.w3.org/1999/xlink" x="0px" y="0px"
	 viewBox="0 0 30 30" style="enable-background:new 0 0 30 30;" xml:space="preserve">
<style type="text/css">
	.st0{fill:#FFFFFF;}
</style>
<path class="st0" d="M23.5,21.4c-0.5,0-1,0.2-1.4,0.4l-4-4L18,17.7c0.5-0.6,0.8-1.5,0.8-2.3c0-1.2-0.6-2.3-1.5-3.1l1.6-2.9
	c0.3,0.1,0.6,0.1,0.9,0.1c1.5,0,2.7-1.2,2.7-2.7s-1.2-2.7-2.7-2.7S17,5.5,17,7c0,0.8,0.4,1.6,1,2.1L16.4,12
	c-0.4-0.2-0.9-0.3-1.4-0.3c-0.9,0-1.7,0.3-2.3,0.8l0,0l-2.2-2.2c0.1-0.2,0.2-0.5,0.2-0.8c0-1-0.8-1.8-1.8-1.8S7,8.4,7,9.3
	s0.8,1.8,1.8,1.8c0.3,0,0.6-0.1,0.8-0.2l2.2,2.2l0,0c-0.5,0.6-0.8,1.5-0.8,2.3c0,0.8,0.2,1.5,0.6,2.1L8,20.7c-0.5-0.3-1-0.5-1.6-0.5
	c-1.5,0-2.7,1.2-2.7,2.7s1.2,2.7,2.7,2.7s2.7-1.2,2.7-2.7c0-0.5-0.1-1-0.4-1.4l3.6-3.2c0.7,0.6,1.6,1,2.5,1s1.7-0.3,2.4-0.8
	c0,0,0,0.1,0.1,0.1l4,4C21,23,20.8,23.5,20.8,24c0,1.5,1.2,2.6,2.6,2.6c1.5,0,2.6-1.2,2.6-2.6C26.1,22.6,24.9,21.4,23.5,21.4z"/>
</svg>
