<?xml version="1.0" encoding="utf-8"?>
<!-- Generator: Adobe Illustrator 21.1.0, SVG Export Plug-In . SVG Version: 6.00 Build 0)  -->
<svg version="1.1" id="Layer_1" xmlns="http://www.w3.org/2000/svg" xmlns:xlink="http://www.w3.org/1999/xlink" x="0px" y="0px"
	 viewBox="0 0 30 30" style="enable-background:new 0 0 30 30;" xml:space="preserve">
<style type="text/css">
	.st0{fill:#FFFFFF;stroke:#FFFFFF;stroke-width:0.5;stroke-miterlimit:10;}
</style>
<path class="st0" d="M15.4,26.8c-2.4,0-4.3-1.9-4.3-4.3c0-0.4,0.4-0.8,0.8-0.8c0.4,0,0.8,0.4,0.8,0.8c0,1.5,1.2,2.7,2.7,2.7
	s2.7-1.2,2.7-2.7c0-3.7,1.7-5.4,3.1-6.7c1.3-1.3,2.2-2.2,2.2-4.5c0-3.6-2.9-6.6-6.6-6.6s-6.6,2.9-6.6,6.6c0,0.4-0.4,0.8-0.8,0.8
	s-0.8-0.4-0.8-0.8c0-4.5,3.7-8.2,8.2-8.2S25,6.8,25,11.3c0,3-1.4,4.4-2.7,5.6c-1.3,1.3-2.7,2.6-2.7,5.6
	C19.6,24.8,17.7,26.8,15.4,26.8z"/>
<path class="st0" d="M12.5,15c0.6-0.2,1.3,0.1,1.5,0.7c0.2,0.6-0.1,1.3-0.7,1.5c-0.6,0.2-1.3-0.1-1.5-0.7
	C11.6,15.8,11.9,15.2,12.5,15L12.5,15z"/>
<path class="st0" d="M7.7,14.4L7.7,14.4l-0.1,0.1l0,0c-0.8,1.9,0,4,1.8,4.9l0.2,0.1l0.3,0.1c0.4,0.2,0.8,0,1-0.3
	c0.2-0.4,0-0.8-0.3-1l-0.5-0.2c-1.2-0.6-1.6-2-1.1-3.1l0.2-0.4c0.2-0.4,0-0.8-0.3-1c-0.2-0.1-0.4-0.1-0.6,0C8.2,13.7,8,13.8,7.9,14
	L7.7,14.4z"/>
<path class="st0" d="M4.4,13l-0.1,0.3l0,0l-0.1,0.2v0.1c-1.2,3,0.1,6.5,3,8l0,0l0.6,0.3c0.3,0.2,0.7,0,0.9-0.3s0-0.7-0.3-0.9
	l-0.6-0.3l0,0c-2.4-1.2-3.4-4.1-2.3-6.5l0.2-0.4c0.2-0.3,0-0.7-0.3-0.9C5,12.5,4.6,12.6,4.4,13L4.4,13z"/>
</svg>
