<?xml version="1.0" encoding="utf-8"?>
<!-- Generator: Adobe Illustrator 22.0.1, SVG Export Plug-In . SVG Version: 6.00 Build 0)  -->
<svg version="1.1" id="Layer_1" xmlns="http://www.w3.org/2000/svg" xmlns:xlink="http://www.w3.org/1999/xlink" x="0px" y="0px"
	 width="24px" height="24px" viewBox="0 0 24 24" style="enable-background:new 0 0 24 24;" xml:space="preserve">
<style type="text/css">
	.st0{fill:#BEBEBE;}
</style>
<g>
	<path class="st0" d="M2,7.5v6.6h4.3v-1.6c0-0.3,0.2-0.5,0.5-0.5h0.4c0.3,0,0.5,0.2,0.5,0.5v1.6h8.6v-1.6c0-0.3,0.2-0.5,0.5-0.5h0.4
		c0.3,0,0.5,0.2,0.5,0.5v1.6H22V7.5C22,7.2,21.8,7,21.5,7H2.5C2.2,7,2,7.2,2,7.5z"/>
	<path class="st0" d="M17.7,15.6h-1.4v-0.4H7.7v0.4H6.3v-0.4H2v4.1c0,0.3,0.2,0.5,0.5,0.5h18.9c0.3,0,0.5-0.2,0.5-0.5v-4.1h-4.3
		V15.6z"/>
	<path class="st0" d="M9.5,5.2h5c0.2,0,0.4,0.2,0.4,0.4v0.7h1.1V5.2V4.5c0-0.2-0.2-0.4-0.4-0.4h-0.7H9.1H8.4c-0.2,0-0.4,0.2-0.4,0.4
		v0.7v1.1h1.1V5.6C9.1,5.4,9.3,5.2,9.5,5.2z"/>
</g>
</svg>
