<?xml version="1.0" encoding="UTF-8"?>
<svg width="26px" height="19px" viewBox="0 0 26 19" version="1.1" xmlns="http://www.w3.org/2000/svg" xmlns:xlink="http://www.w3.org/1999/xlink">
    <title>Quote - Small</title>
    <desc>Quote Small SVG for Amsterdam PatternLab</desc>
    <defs></defs>
    <g id="Page-1" stroke="none" stroke-width="1" fill="none" fill-rule="evenodd">
        <g id="Typografie-1.0-(10-mei)" transform="translate(-1589.000000, -4675.000000)" fill="#EE0000">
            <g id="Group-9" transform="translate(1589.000000, 4675.000000)">
                <g id="Group-8" transform="translate(14.088670, 0.000000)">
                    <rect id="Rectangle-4" x="0" y="6.4484127" width="11.5270936" height="11.6071429"></rect>
                    <path d="M1.28078818,0.64484127 C1.29336861,0.630631745 7.06855826,0.619094756 7.04433498,0.64484127 C5.56678509,2.21530369 5.7635468,6.4484127 5.7635468,6.4484127 L-3.63797881e-12,6.4484127 C-3.63797881e-12,6.4484127 -3.63797881e-12,2.05653357 1.28078818,0.64484127 Z" id="Rectangle-6"></path>
                </g>
                <g id="Group-8-Copy">
                    <rect id="Rectangle-4" x="0" y="6.4484127" width="11.5270936" height="11.6071429"></rect>
                    <path d="M1.28078818,0.64484127 C1.29336861,0.630631745 7.06855826,0.619094756 7.04433498,0.64484127 C5.56678509,2.21530369 5.7635468,6.4484127 5.7635468,6.4484127 L-7.27595761e-12,6.4484127 C-7.27595761e-12,6.4484127 -7.27595761e-12,2.05653357 1.28078818,0.64484127 Z" id="Rectangle-6"></path>
                </g>
            </g>
        </g>
    </g>
</svg>
