<?xml version="1.0" encoding="utf-8"?>
<!-- Generator: Adobe Illustrator 22.0.1, SVG Export Plug-In . SVG Version: 6.00 Build 0)  -->
<svg version="1.1" id="Layer_1" xmlns="http://www.w3.org/2000/svg" xmlns:xlink="http://www.w3.org/1999/xlink" x="0px" y="0px"
	 width="24px" height="24px" viewBox="0 0 24 24" style="enable-background:new 0 0 24 24;" xml:space="preserve">
<style type="text/css">
	.st0{fill:#BEBEBE;}
</style>
<path class="st0" d="M21.7,5.5h-4.9V4c0-0.5-0.4-0.9-0.9-0.9c-0.5,0-0.9,0.4-0.9,0.9v1.4H9.4V4c0-0.5-0.4-0.9-0.9-0.9
	C8,3.2,7.6,3.6,7.6,4v1.4H3.3c-0.4,0-0.8,0.4-0.8,0.8v15c0,0.4,0.4,0.8,0.8,0.8h18.4c0.4,0,0.8-0.4,0.8-0.8v-15
	C22.5,5.8,22.1,5.5,21.7,5.5z M21.4,8.9c0,0.3-0.3,0.6-0.6,0.6H4.2c-0.3,0-0.6-0.3-0.6-0.6V7.2c0-0.3,0.3-0.6,0.6-0.6h16.5
	c0.3,0,0.6,0.3,0.6,0.6V8.9z"/>
</svg>
