<?xml version="1.0" encoding="utf-8"?>
<!-- Generator: Adobe Illustrator 22.0.1, SVG Export Plug-In . SVG Version: 6.00 Build 0)  -->
<svg version="1.1" id="Layer_21_copy" xmlns="http://www.w3.org/2000/svg" xmlns:xlink="http://www.w3.org/1999/xlink" x="0px"
	 y="0px" viewBox="0 0 14.9 17.1" style="enable-background:new 0 0 14.9 17.1;" xml:space="preserve">
<style type="text/css">
	.st0{fill:#039F4A;}
</style>
<g id="man_5_">
	<path class="st0" d="M0,17.1c0.2-1.5,0.4-2.9,0.7-4.4c0.1-0.7,0.2-1.4,0.3-2C1.1,9.7,1.8,9,2.8,9C5.9,9,9,9,12.1,9
		c0.9,0,1.6,0.5,1.8,1.4c0.3,2.2,0.6,4.3,1,6.5V17C9.8,17.1,5,17.1,0,17.1z"/>
	<path class="st0" d="M11.5,4c0,2.3-1.8,4.1-4.1,4.1s-4.1-1.8-4.1-4C3.3,1.8,5.1,0,7.4,0C9.7-0.1,11.5,1.7,11.5,4z"/>
</g>
</svg>
