<?xml version="1.0" encoding="utf-8"?>
<!-- Generator: Adobe Illustrator 22.0.1, SVG Export Plug-In . SVG Version: 6.00 Build 0)  -->
<svg version="1.1" id="Layer_21_copy" xmlns="http://www.w3.org/2000/svg" xmlns:xlink="http://www.w3.org/1999/xlink" x="0px"
	 y="0px" viewBox="0 0 14.2 18.2" style="enable-background:new 0 0 14.2 18.2;" xml:space="preserve">
<style type="text/css">
	.st0{fill:#EA1D25;}
</style>
<g>
	<path class="st0" d="M10.4,12.9c0,0.2-0.2,0.5-0.1,0.7c0.3,1.3,0.6,2.6,0.8,4c0,0.2,0.1,0.4,0.1,0.6c-3.7,0-7.5,0-11.3,0
		C0.2,17.1,0.3,16,0.5,15c0.2-1.3,0.4-2.5,0.6-3.8c0.1-1,0.8-1.5,1.7-1.5c2.9,0,5.8,0,8.7,0c0.8,0,1.5,0.5,1.7,1.4
		c0.4,2.4,0.7,4.8,1.1,7.2c-0.7,0-1.5,0-2.2,0c-0.1,0-0.3-0.3-0.3-0.4c-0.4-1.6-0.7-3.2-1-4.8C10.6,12.9,10.5,12.9,10.4,12.9z"/>
	<path class="st0" d="M4.1,7.4C3.1,8.7,1.8,8.9,0.4,7.9c1.6-0.6,1.5-1.9,1.4-3.2C1.7,4.1,1.6,3.4,1.6,2.7c0.3-2.3,2.9-3.5,4.8-2.2
		C6.8,0.8,7.2,1,7.7,1.1c1.7,0.2,2.9,1.5,3.2,3.2c0.3,1.5-0.5,3.1-1.8,3.9C7.7,9,6,8.9,4.7,7.8C4.5,7.7,4.3,7.5,4.1,7.4z"/>
</g>
</svg>
