<?xml version="1.0" encoding="utf-8"?>
<!-- Generator: Adobe Illustrator 22.0.1, SVG Export Plug-In . SVG Version: 6.00 Build 0)  -->
<svg version="1.1" id="Layer_1" xmlns="http://www.w3.org/2000/svg" xmlns:xlink="http://www.w3.org/1999/xlink" x="0px" y="0px"
	 viewBox="0 0 30 30" style="enable-background:new 0 0 30 30;" xml:space="preserve">
<style type="text/css">
	.st0{display:none;}
	.st1{display:inline;fill:none;stroke:#FFFFFF;stroke-width:0.75;stroke-miterlimit:10;}
	.st2{fill:#FFFFFF;}
	.st3{fill:none;stroke:#FFFFFF;stroke-width:2;stroke-miterlimit:10;}
</style>
<g id="mail_dit_artikel" class="st0">
	<path class="st1" d="M5.3,7.4v19.5h13.9V13.4l-3-3l-3-3C13.2,7.4,5.3,7.4,5.3,7.4z"/>
	<path class="st1" d="M16.2,10.4l-2.7-2.7c-0.1-0.1-0.3,0-0.3,0.1v5.5h5.5c0.2,0,0.3-0.2,0.1-0.3L16.2,10.4z"/>
	<path class="st1" d="M19.2,23.1h5.4V9.7l-3-3l-3-3h-7.9v3.7"/>
	<path class="st1" d="M21.6,6.7L19,4c-0.1-0.1-0.3,0-0.3,0.1v5.5h5.5c0.2,0,0.3-0.2,0.1-0.3L21.6,6.7z"/>
</g>
<polygon class="st2" points="23.5,13.7 16.5,13.7 16.5,13 16.5,12.1 16.5,11.5 23.5,11.5 23.5,12.1 23.5,13 "/>
<polygon class="st2" points="23.5,15.3 22.8,15.3 17.2,15.3 16.5,15.3 16.5,17.5 17.2,17.5 23.5,17.5 "/>
<rect x="3.4" y="6.8" class="st3" width="23.2" height="15.2"/>
<circle class="st2" cx="10.6" cy="12.8" r="2.7"/>
<path class="st2" d="M14.9,16.1l-2.4-0.6c-1.2,0.9-2.8,0.7-3.8,0l-2.4,0.6v2.7h8.6V16.1z"/>
</svg>
