<?xml version="1.0" encoding="utf-8"?>
<!-- Generator: Adobe Illustrator 22.0.1, SVG Export Plug-In . SVG Version: 6.00 Build 0)  -->
<svg version="1.1" xmlns="http://www.w3.org/2000/svg" xmlns:xlink="http://www.w3.org/1999/xlink" x="0px" y="0px"
	 viewBox="0 0 30 30" style="enable-background:new 0 0 30 30;" xml:space="preserve">
<style type="text/css">
	.st0{display:none;}
	.st1{display:inline;fill:#7A7A7A;}
	.st2{display:inline;}
	.st3{fill:#FFFFFF;}
</style>
<g id="Layer_2" class="st0">
	<rect x="-5.2" y="-4.5" class="st1" width="41.8" height="40.6"/>
</g>
<g id="Layer_1" class="st0">
	<g id="Layer_2_1_" class="st2">
		<g id="Page-1_1_">
			
				<g id="_x5B_2a.BOARD_x5D_-Formulieren-_x26_-Interactieve-elementen-1.4-_x28_11-mei_x29_-_x5B_BOARD_x5D__1_" transform="translate(-637.000000, -8561.000000)">
				<g id="Icoon_document_1_" transform="translate(637.000000, 8561.000000)">
					<path id="Shape_1_" class="st3" d="M19,23h6.6V7.3L21.1,3H9.5v5.3h1.8V4.9h8.4V9h4v12.3H19V23z"/>
				</g>
			</g>
		</g>
		<g id="Page-1">
			
				<g id="_x5B_2a.BOARD_x5D_-Formulieren-_x26_-Interactieve-elementen-1.4-_x28_11-mei_x29_-_x5B_BOARD_x5D_" transform="translate(-637.000000, -8561.000000)">
				<g id="Icoon_document" transform="translate(637.000000, 8561.000000)">
					<path id="Shape" class="st3" d="M15.4,7.4H3.8v20h16V11.6L15.4,7.4z M5.6,25.6V9.2H14v4.1h4v12.3C18,25.6,5.6,25.6,5.6,25.6z"
						/>
				</g>
			</g>
		</g>
	</g>
</g>
<g id="Layer_3">
	<path class="st3" d="M25.8,9.6l-2.8,2.8c0,0,0,0,0,0l-5.4-5.4c0,0,0,0,0,0l2.9-2.8L25.8,9.6z M16.6,8L5.1,19.5c0,0,0,0,0,0
		l-0.9,6.3l0,0l6.3-0.9c0,0,0,0,0,0l11.4-11.4c0,0,0,0,0,0L16.6,8z M9.9,23.6l-2.7,0.5c0,0,0,0,0,0l-1.3-1.3c0,0,0,0,0,0l0.5-2.7
		L9.9,23.6z"/>
</g>
</svg>
