<?xml version="1.0" encoding="utf-8"?>
<!-- Generator: Adobe Illustrator 21.1.0, SVG Export Plug-In . SVG Version: 6.00 Build 0)  -->
<svg version="1.1" id="Layer_1" xmlns="http://www.w3.org/2000/svg" xmlns:xlink="http://www.w3.org/1999/xlink" x="0px" y="0px"
	 viewBox="0 0 30 30" style="enable-background:new 0 0 30 30;" xml:space="preserve">
<style type="text/css">
	.st0{fill:#FFFFFF;}
</style>
<path class="st0" d="M15.5,5.6c3,0,3.3,0,4.5,0.1c1.1,0,1.7,0.2,2.1,0.4c0.5,0.2,0.9,0.4,1.3,0.8s0.6,0.8,0.8,1.3
	c0.2,0.4,0.3,1,0.4,2.1c0.1,1.2,0.1,1.5,0.1,4.5s0,3.3-0.1,4.5c0,1.1-0.2,1.7-0.4,2.1c-0.2,0.5-0.4,0.9-0.8,1.3s-0.8,0.6-1.3,0.8
	c-0.4,0.2-1,0.3-2.1,0.4C18.8,24,18.5,24,15.5,24s-3.3,0-4.5-0.1c-1.1,0-1.7-0.2-2.1-0.4c-0.5-0.2-0.9-0.4-1.3-0.8S7,21.9,6.8,21.4
	c-0.2-0.4-0.3-1-0.4-2.1c-0.1-1.2-0.1-1.5-0.1-4.5s0-3.3,0.1-4.5c0-1.1,0.2-1.7,0.4-2.1C7,7.6,7.3,7.3,7.7,6.9
	C8,6.5,8.4,6.3,8.9,6.1c0.4-0.2,1-0.3,2.1-0.4C12.2,5.6,12.5,5.6,15.5,5.6 M15.5,3.6c-3,0-3.4,0-4.6,0.1s-2,0.2-2.7,0.5
	s-1.3,0.7-2,1.3c-0.6,0.6-1,1.2-1.3,2C4.6,8.2,4.4,9,4.4,10.2c-0.1,1.2-0.1,1.6-0.1,4.6s0,3.4,0.1,4.6s0.2,2,0.5,2.7s0.7,1.3,1.3,2
	c0.6,0.6,1.2,1,2,1.3c0.7,0.3,1.5,0.5,2.7,0.5c1.2,0.1,1.6,0.1,4.6,0.1s3.4,0,4.6-0.1s2-0.2,2.7-0.5s1.3-0.7,2-1.3
	c0.6-0.6,1-1.2,1.3-2c0.3-0.7,0.5-1.5,0.5-2.7c0.1-1.2,0.1-1.6,0.1-4.6s0-3.4-0.1-4.6s-0.2-2-0.5-2.7s-0.7-1.3-1.3-2
	c-0.6-0.6-1.2-1-2-1.3C22,3.9,21.2,3.7,20,3.7C18.9,3.6,18.5,3.6,15.5,3.6L15.5,3.6z"/>
<path class="st0" d="M15.5,9c-3.1,0-5.7,2.5-5.7,5.7s2.5,5.7,5.7,5.7s5.7-2.5,5.7-5.7S18.6,9,15.5,9z M15.5,18.4
	c-2,0-3.7-1.7-3.7-3.7s1.7-3.7,3.7-3.7s3.7,1.7,3.7,3.7S17.5,18.4,15.5,18.4z"/>
<circle class="st0" cx="21.4" cy="8.8" r="1.3"/>
</svg>
