<?xml version="1.0" encoding="utf-8"?>
<!-- Generator: Adobe Illustrator 22.0.1, SVG Export Plug-In . SVG Version: 6.00 Build 0)  -->
<svg version="1.1" id="whatsapp_1_" xmlns="http://www.w3.org/2000/svg" xmlns:xlink="http://www.w3.org/1999/xlink" x="0px"
	 y="0px" viewBox="0 0 30 30" style="enable-background:new 0 0 30 30;" xml:space="preserve">
<style type="text/css">
	.st0{fill-rule:evenodd;clip-rule:evenodd;fill:#FFFFFF;}
</style>
<g id="whatsapp">
	<path class="st0" d="M26.5,14.7c0,6.2-5.1,11.2-11.3,11.2c-2,0-3.8-0.5-5.5-1.4l-6.3,2l2-6c-1-1.7-1.6-3.7-1.6-5.8
		C3.9,8.5,9,3.5,15.2,3.5C21.4,3.5,26.5,8.5,26.5,14.7L26.5,14.7z M15.2,5.3c-5.2,0-9.5,4.2-9.5,9.4c0,2.1,0.7,4,1.8,5.5l-1.2,3.5
		l3.6-1.2c1.5,1,3.3,1.6,5.2,1.6c5.2,0,9.5-4.2,9.5-9.4C24.7,9.5,20.4,5.3,15.2,5.3L15.2,5.3z M20.9,17.3c-0.1-0.1-0.3-0.2-0.5-0.3
		c-0.3-0.1-1.6-0.8-1.9-0.9c-0.3-0.1-0.4-0.1-0.6,0.1c-0.2,0.3-0.7,0.9-0.9,1.1c-0.2,0.2-0.3,0.2-0.6,0.1c-0.3-0.1-1.2-0.4-2.2-1.4
		c-0.8-0.7-1.4-1.6-1.5-1.9c-0.2-0.3,0-0.4,0.1-0.6c0.1-0.1,0.3-0.3,0.4-0.5c0.1-0.2,0.2-0.3,0.3-0.5c0.1-0.2,0-0.3,0-0.5
		c-0.1-0.1-0.6-1.5-0.9-2c-0.2-0.5-0.5-0.5-0.6-0.5c-0.2,0-0.3,0-0.5,0c-0.2,0-0.5,0.1-0.7,0.3c-0.3,0.3-1,0.9-1,2.3
		c0,1.4,1,2.7,1.1,2.8c0.1,0.2,1.9,3,4.7,4.1c2.8,1.1,2.8,0.7,3.3,0.7c0.5,0,1.6-0.7,1.9-1.3C21,17.9,21,17.4,20.9,17.3L20.9,17.3z
		 M20.9,17.3"/>
</g>
</svg>
