<?xml version="1.0" encoding="utf-8"?>
<!-- Generator: Adobe Illustrator 22.0.1, SVG Export Plug-In . SVG Version: 6.00 Build 0)  -->
<svg version="1.1" id="document" xmlns="http://www.w3.org/2000/svg" xmlns:xlink="http://www.w3.org/1999/xlink" x="0px"
	 y="0px" width="30px" height="30px" viewBox="0 0 30 30" style="enable-background:new 0 0 30 30;" xml:space="preserve">
<style type="text/css">
	.st0{display:none;}
	.st1{display:inline;fill:#FFFFFF;}
	.st2{fill:#FFFFFF;}
</style>
<g id="document" class="st0">
	<circle class="st1" cx="6.7" cy="6.7" r="2.6"/>
	<path class="st1" d="M11.7,11.3v14.3h4.4v-7.1c0-1.9,0.4-3.7,2.7-3.7s2.3,2.1,2.3,3.8v7h4.4v-7.8c0-3.9-0.8-6.8-5.3-6.8
		c-2.2,0-3.6,1.2-4.2,2.3h-0.1v-2C15.9,11.3,11.7,11.3,11.7,11.3z"/>
	<rect x="4.4" y="11.3" class="st1" width="4.4" height="14.3"/>
</g>
<g id="Page-1">

		<g id="_x5B_2a.BOARD_x5D_-Formulieren-_x26_-Interactieve-elementen-1.4-_x28_11-mei_x29_-_x5B_BOARD_x5D_" transform="translate(-637.000000, -8561.000000)">
		<g id="Icoon_document" transform="translate(637.000000, 8561.000000)">
			<path id="Shape" class="st2" d="M18.8,3.8H6.6v22.3h16.8V8.6L18.8,3.8z M8.4,24.1V5.9h8.8v4.6h4.2v13.7L8.4,24.1L8.4,24.1z"/>
		</g>
	</g>
</g>
</svg>
