<?xml version="1.0" encoding="utf-8"?>
<!-- Generator: Adobe Illustrator 21.1.0, SVG Export Plug-In . SVG Version: 6.00 Build 0)  -->
<svg version="1.1" id="google_plus_1_" xmlns="http://www.w3.org/2000/svg" xmlns:xlink="http://www.w3.org/1999/xlink" x="0px"
	 y="0px" viewBox="0 0 30 30" style="enable-background:new 0 0 30 30;" xml:space="preserve">
<style type="text/css">
	.st0{fill:#FFFFFF;}
</style>
<g id="nieuw_logo">
	<path class="st0" d="M11.6,16.4h4.2c-0.6,1.9-2.2,3.2-4.2,3.2C9,19.6,7,17.5,7,15c0-2.6,2.1-4.6,4.6-4.6c1.1,0,2.2,0.4,3,1.1
		l1.8-2.1c-1.3-1.2-3.1-1.8-4.8-1.8c-4.1,0-7.5,3.3-7.5,7.5s3.3,7.5,7.5,7.5c4.1,0,7.2-3.3,7.2-7.5V14h-7.3L11.6,16.4L11.6,16.4z
		 M24.6,13.9v-2.1h-2.1v2.1h-2.1V16h2.1v2.1h2.1V16h2.1v-2.1H24.6z"/>
</g>
</svg>
