<?xml version="1.0" encoding="utf-8"?>
<!-- Generator: Adobe Illustrator 21.1.0, SVG Export Plug-In . SVG Version: 6.00 Build 0)  -->
<svg version="1.1" id="toevoegen_applicaties_1_" xmlns="http://www.w3.org/2000/svg" xmlns:xlink="http://www.w3.org/1999/xlink"
	 x="0px" y="0px" viewBox="0 0 30 30" style="enable-background:new 0 0 30 30;" xml:space="preserve">
<style type="text/css">
	.st0{fill:#FFFFFF;}
</style>
<path class="st0" d="M19.7,4.4C18,4.4,16.3,5,15,6.2c-1.3-1.1-3-1.8-4.7-1.8c-3.8,0-6.8,3-6.8,6.8c0,4.6,3.2,7.4,8.1,11.7
	c0.4,0.4,0.8,0.7,1.3,1.1l0,0l1.5,1.3c0.2,0.2,0.4,0.3,0.7,0.3c0.2,0,0.5-0.1,0.7-0.3l1.5-1.3l0,0c2.9-2.6,5.1-4.5,6.7-6.5
	c1.8-2.2,2.7-4.3,2.7-6.4C26.5,7.4,23.5,4.4,19.7,4.4L19.7,4.4z M15.8,22.5L15,23.1l-0.8-0.7c-0.4-0.4-0.9-0.8-1.3-1.1
	c-4.6-4-7.4-6.5-7.4-10.1c0-2.7,2-4.7,4.7-4.7c1.5,0,3,0.7,3.9,1.8c0.2,0.2,0.5,0.4,0.8,0.4s0.6-0.1,0.8-0.4c1-1.1,2.5-1.8,3.9-1.8
	c2.7,0,4.7,2,4.7,4.7C24.4,14.7,21.3,17.6,15.8,22.5L15.8,22.5z"/>
</svg>
