<svg width="20" height="20" viewBox="0 0 20 20" fill="none" xmlns="http://www.w3.org/2000/svg">
<path d="M4.2725 5.62625L8.1275 5.62437L8.13062 8.12313L0 8.13125L0.00875 0L2.50688 0.003125L2.505 3.85875L3.16563 3.16563" fill="black"/>
<path d="M4.2725 5.62625L4.93312 4.93312C7.80375 2.0625 12.4737 2.0625 15.3444 4.9325C18.215 7.80312 18.215 12.4737 15.3444 15.3444C12.4737 18.2144 7.80375 18.2144 4.93312 15.3437L3.16562 17.1112C7.01687 20.9631 13.2612 20.9631 17.1119 17.1119C20.9625 13.2612 20.9631 7.01625 17.1119 3.165C13.2612 -0.685625 7.01625 -0.685 3.16562 3.16562L4.2725 5.62625Z" fill="black"/>
</svg>
