<svg width="20" height="20" viewBox="0 0 20 20" fill="none" xmlns="http://www.w3.org/2000/svg">
<g clip-path="url(#clip0)">
<path fill-rule="evenodd" clip-rule="evenodd" d="M19.9997 18.1996L13.8591 12.059C14.9679 10.4983 15.45 8.57796 15.2098 6.67857C14.9696 4.77918 14.0246 3.03934 12.5621 1.80381C11.0996 0.568288 9.22638 -0.0727488 7.31355 0.00773153C5.40073 0.0882118 3.58793 0.884337 2.23439 2.23834C0.880857 3.59235 0.0853615 5.40542 0.00554529 7.31828C-0.074271 9.23113 0.567417 11.1042 1.80345 12.5662C3.03948 14.0283 4.77965 14.9727 6.67913 15.2122C8.5786 15.4518 10.4988 14.969 12.0591 13.8596L18.1985 20.0003L19.9997 18.1996ZM7.64284 12.7334C6.96963 12.7408 6.30162 12.6147 5.67749 12.3622C5.05336 12.1098 4.48551 11.736 4.00682 11.2626C3.52812 10.7892 3.14809 10.2255 2.88873 9.60419C2.62936 8.98289 2.49581 8.31633 2.49581 7.64307C2.49581 6.96981 2.62936 6.30324 2.88873 5.68195C3.14809 5.06066 3.52812 4.49699 4.00682 4.02357C4.48551 3.55015 5.05336 3.17638 5.67749 2.92392C6.30162 2.67145 6.96963 2.5453 7.64284 2.55276C8.99296 2.55276 10.2878 3.08909 11.2425 4.04377C12.1971 4.99844 12.7335 6.29326 12.7335 7.64338C12.7335 8.9935 12.1971 10.2883 11.2425 11.243C10.2878 12.1977 8.99296 12.734 7.64284 12.734V12.7334Z" fill="black"/>
</g>
<defs>
<clipPath id="clip0">
<rect width="20" height="20" fill="white"/>
</clipPath>
</defs>
</svg>
