<?xml version="1.0" encoding="utf-8"?>
<!-- Generator: Adobe Illustrator 21.0.0, SVG Export Plug-In . SVG Version: 6.00 Build 0)  -->
<svg version="1.1" id="Layer_1" xmlns:dc="http://purl.org/dc/elements/1.1/" xmlns:xl="http://www.w3.org/1999/xlink"
	 xmlns="http://www.w3.org/2000/svg" xmlns:xlink="http://www.w3.org/1999/xlink" x="0px" y="0px" viewBox="0 0 20 68"
	 style="enable-background:new 0 0 20 68;" xml:space="preserve">
<style type="text/css">
	.st0{fill:#EC0000;}
</style>
<title>Canvas 1</title>
<g>
	<title>Layer 1</title>
	<path class="st0" d="M0,64l6-6l-6-6l4-4l6,6l6-6l4,4l-6,6l6,6l-4,4l-6-6l-6,6L0,64z"/>
	<path class="st0" d="M0,16l6-6L0,4l4-4l6,6l6-6l4,4l-6,6l6,6l-4,4l-6-6l-6,6L0,16z"/>
	<path class="st0" d="M0,40l6-6l-6-6l4-4l6,6l6-6l4,4l-6,6l6,6l-4,4l-6-6l-6,6L0,40z"/>
</g>
</svg>
